<?xml version="1.0" encoding="UTF-8" standalone="no"?>
<svg
   xmlns:dc="http://purl.org/dc/elements/1.1/"
   xmlns:cc="http://creativecommons.org/ns#"
   xmlns:rdf="http://www.w3.org/1999/02/22-rdf-syntax-ns#"
   xmlns:svg="http://www.w3.org/2000/svg"
   xmlns="http://www.w3.org/2000/svg"
   id="svg908"
   version="1.1"
   viewBox="0 0 47.897861 44.168896"
   height="44.168896mm"
   width="47.897861mm">
  <defs
     id="defs902" />
  <metadata
     id="metadata905">
    <rdf:RDF>
      <cc:Work
         rdf:about="">
        <dc:format>image/svg+xml</dc:format>
        <dc:type
           rdf:resource="http://purl.org/dc/dcmitype/StillImage" />
        <dc:title></dc:title>
      </cc:Work>
    </rdf:RDF>
  </metadata>
  <g
     transform="translate(-81.128448,-106.33817)"
     id="layer1">
    <path
       style="fill:#000000;stroke-width:0.09926373"
       d="m 105.02702,146.6495 c -0.15658,-0.4291 -0.43024,-1.1579 -0.60834,-1.61952 l -0.3238,-0.83935 0.23198,-0.31842 c 0.44624,-0.61252 0.64584,-1.14383 0.64584,-1.71926 v -0.55317 l -0.36704,-0.0647 c -2.03102,-0.35823 -3.24055,-0.94495 -4.647822,-2.25459 -1.074092,-0.99955 -2.024023,-2.81114 -2.246718,-4.28456 -0.08733,-0.57827 -0.162754,-0.79354 -0.305639,-0.87213 -0.218328,-0.12024 -1.140713,-0.0414 -2.171204,0.18523 -1.11747,0.24589 -1.603197,0.2567 -1.896729,0.0422 -0.141141,-0.10309 -0.410634,-0.25571 -0.599036,-0.33918 -0.416987,-0.18475 -0.782456,-0.46765 -0.609933,-0.47209 0.06837,-0.002 0.402652,-0.17738 0.743091,-0.39001 0.340439,-0.21261 0.721037,-0.41424 0.845771,-0.44781 0.124822,-0.0336 0.733762,0.0516 1.353354,0.18951 0.75716,0.16832 1.353684,0.24094 1.819364,0.22118 l 0.692853,-0.0293 0.07255,-0.60012 c 0.228606,-1.89004 1.323735,-3.91758 2.757988,-5.10608 1.05159,-0.87144 2.62784,-1.57284 3.90273,-1.73669 0.3248,-0.0417 0.55813,-0.12143 0.55759,-0.19047 -0.002,-0.3398 -0.63769,-1.215 -1.1791,-1.62496 l -0.58555,-0.44339 0.51577,-0.35281 c 0.28365,-0.19405 0.68176,-0.58215 0.88468,-0.86242 0.35265,-0.48715 0.38933,-0.50961 0.83192,-0.50944 0.44228,2.4e-4 0.47727,0.0214 0.78157,0.47823 0.1751,0.26289 0.53649,0.63657 0.80285,0.83034 0.26639,0.1938 0.48639,0.38249 0.48891,0.41929 0.002,0.0369 -0.20885,0.22809 -0.46945,0.42487 -0.48904,0.36924 -0.906,0.90746 -1.08647,1.4024 -0.0569,0.15594 -0.10343,0.29886 -0.10343,0.31774 0,0.0191 0.23122,0.065 0.51383,0.10262 1.00695,0.13356 2.42704,0.66045 3.2632,1.21064 1.08002,0.71066 2.10683,1.89686 2.71701,3.13875 0.29889,0.60836 0.7486,2.14073 0.7486,2.55083 0,0.55412 0.0628,0.60103 0.80615,0.60103 0.38108,0 1.18455,-0.11476 1.80328,-0.25747 0.63296,-0.14594 1.20994,-0.22761 1.33309,-0.18856 0.21259,0.0676 1.53838,0.84358 1.53838,0.90053 0,0.0286 -0.37913,0.28661 -1.06746,0.72671 -0.37063,0.23689 -1.04381,0.30722 -1.10598,0.11547 -0.0198,-0.0619 -0.26557,-0.12404 -0.54554,-0.13785 -0.27994,-0.0143 -0.58121,-0.0869 -0.66947,-0.16213 -0.10916,-0.0931 -0.40559,-0.13214 -0.92664,-0.12191 -1.04577,0.0214 -1.16581,0.0697 -1.16581,0.47813 0,0.50707 -0.52575,2.2755 -0.8794,2.95802 -1.11388,2.14963 -3.07787,3.49812 -5.89836,4.04989 l -0.56275,0.10999 v 0.49946 c 0,0.57531 0.16209,1.02658 0.587,1.63536 l 0.30034,0.43017 -0.39852,1.05103 c -0.21922,0.57807 -0.43779,1.14163 -0.4858,1.25238 -0.0481,0.11072 -0.13783,0.37123 -0.19958,0.57886 -0.0617,0.20761 -0.12063,0.37754 -0.131,0.37754 -0.011,0 -0.14665,-0.35111 -0.30326,-0.78021 z m -0.53149,-6.25327 c 0.24314,-0.15856 0.53424,-0.40889 0.64691,-0.55624 l 0.20488,-0.26792 0.21061,0.30421 c 0.11578,0.16737 0.40601,0.42198 0.64487,0.56597 l 0.4343,0.26181 0.70932,-0.21833 c 2.17041,-0.66776 3.94911,-2.47083 4.66528,-4.72921 0.24242,-0.76455 0.18701,-1.05263 -0.33217,-1.72754 l -0.32963,-0.42848 0.33196,-0.39891 c 0.53253,-0.63995 0.57675,-0.90835 0.29161,-1.77064 -0.70837,-2.1423 -2.25487,-3.7919 -4.26083,-4.54494 -0.43343,-0.16262 -0.97606,-0.29584 -1.20584,-0.29584 -0.35625,0 -0.47231,0.0576 -0.78858,0.39064 l -0.37085,0.39065 -0.40755,-0.39695 c -0.39226,-0.38211 -0.42783,-0.39527 -0.95035,-0.35172 -0.29856,0.025 -0.8491,0.16975 -1.22341,0.32174 -1.77124,0.71964 -3.185425,2.15868 -3.900663,3.96927 -0.457917,1.15919 -0.432269,1.62037 0.128792,2.31617 l 0.280365,0.34768 -0.329434,0.44381 c -0.432468,0.58258 -0.503678,1.00696 -0.288458,1.71915 0.510073,1.68786 1.723188,3.23949 3.233018,4.13512 0.44726,0.26532 1.81402,0.80004 2.06065,0.8062 0.0567,0.002 0.30208,-0.12713 0.5452,-0.2858 z m 1.25557,-16.64307 c 0.3115,-0.37227 0.32405,-0.41191 0.16033,-0.50621 -0.0977,-0.0562 -0.26212,-0.18905 -0.36527,-0.29521 -0.18481,-0.18999 -0.19253,-0.18904 -0.53068,0.0765 -0.18877,0.14808 -0.3306,0.2966 -0.31527,0.3301 0.1246,0.27211 0.53661,0.81199 0.61514,0.80616 0.0538,-0.005 0.24995,-0.18904 0.43584,-0.41117 z m -4.95678,19.9961 c -1.676741,-0.3782 -3.145303,-1.27306 -4.758555,-2.8996 -1.065159,-1.07393 -2.080191,-2.51425 -2.555288,-3.62597 l -0.252842,-0.59169 0.331396,-0.37732 c 0.182383,-0.20761 0.450773,-0.58686 0.596679,-0.84291 0.145993,-0.25607 0.286032,-0.46558 0.311416,-0.46558 0.02536,0 0.621753,-0.0921 1.325235,-0.20451 0.703482,-0.11238 1.292442,-0.19072 1.308806,-0.17381 0.01544,0.0167 0.09395,0.34744 0.172457,0.73471 0.606954,2.99421 2.597214,5.35248 5.358836,6.34969 0.39892,0.14405 0.97573,0.28578 1.28179,0.31494 l 0.55652,0.0531 -0.15813,0.26346 c -0.28327,0.47184 -0.74823,0.9251 -1.3102,1.27724 -0.62483,0.3915 -1.12022,0.43379 -2.20809,0.18832 z m 7.26138,0.0593 c -0.5387,-0.23357 -1.81065,-1.41894 -1.81065,-1.68746 0,-0.0548 0.23544,-0.12452 0.52322,-0.15499 0.71263,-0.0757 1.78225,-0.47223 2.68763,-0.99642 0.90779,-0.52559 2.35782,-1.96251 2.8782,-2.85215 0.55938,-0.95636 1.15359,-2.67851 1.15359,-3.34338 0,-0.1269 0.0375,-0.23047 0.0836,-0.23047 0.36222,0 2.71243,0.43193 2.73669,0.50296 0.0176,0.0498 0.16253,0.28544 0.32335,0.52366 0.16076,0.23823 0.40338,0.59893 0.53898,0.80152 l 0.24654,0.36839 -0.25181,0.48656 c -0.1385,0.2676 -0.25181,0.5279 -0.25181,0.57844 0,0.0505 -0.29432,0.54924 -0.65407,1.1082 -1.11933,1.73916 -3.00893,3.45693 -4.65778,4.23419 -1.25323,0.59074 -2.96974,0.91079 -3.54568,0.66112 z m -12.44636,-11.31212 -1.19093,-0.21809 -0.363243,-0.55371 c -0.199804,-0.30454 -0.473134,-0.67531 -0.607417,-0.82394 l -0.244197,-0.27026 0.51197,-0.98817 c 0.720045,-1.3898 1.269528,-2.15851 2.293557,-3.20868 1.299476,-1.33262 2.782901,-2.30815 4.11888,-2.70858 0.32299,-0.0969 0.65331,-0.19881 0.73404,-0.2269 0.0807,-0.0278 -0.22754,-0.17405 -0.6851,-0.32456 -1.665284,-0.548 -2.953977,-1.43052 -4.50742,-3.08671 -1.24183,-1.32394 -2.574673,-3.29291 -2.370943,-3.50248 0.03396,-0.035 -0.02205,-0.12642 -0.123721,-0.20333 -0.146214,-0.10999 -0.183925,-0.25996 -0.17753,-0.70556 0.0088,-0.63664 0.231164,-1.01027 0.540751,-0.9092 0.205097,0.0669 0.221306,0.0119 0.07784,-0.26382 -0.214801,-0.4128 1.204492,-2.13604 2.453313,-2.97877 0.39749,-0.26823 0.76865,-0.52166 0.824776,-0.56319 0.06682,-0.0495 0.05138,-0.10928 -0.04477,-0.17309 -0.162975,-0.10833 -0.693735,-0.0509 -1.383742,0.14952 -0.506039,0.1469 -0.37052,0.23356 -1.30283,-0.8322 l -0.286253,-0.32721 h 3.492823 3.492826 v 0.30518 c 0,0.20261 -0.0575,0.32371 -0.17135,0.36025 -1.107311,0.35606 -1.89678,1.11974 -2.479211,2.39821 -0.211934,0.46494 -0.412685,0.98711 -0.446383,1.16038 -0.112914,0.5801 -1.070584,0.88325 -2.746183,0.86921 -0.730785,-0.007 -1.063548,0.0242 -0.998292,0.0914 0.05447,0.0562 0.626361,0.10071 1.291912,0.10071 1.022242,0 1.28287,-0.0348 1.811337,-0.24094 0.422522,-0.16499 0.648988,-0.20833 0.717817,-0.13738 0.134085,0.13809 0.215462,1.24924 0.103872,1.41702 -0.07211,0.10833 -0.202672,0.1 -0.714642,-0.0457 -0.690405,-0.19642 -2.51118,-0.24182 -2.910149,-0.0724 -0.162755,0.0691 0.133423,0.0955 1.027667,0.0917 1.311012,-0.005 1.924273,0.11071 2.220517,0.42131 0.09307,0.0976 0.398616,0.57994 0.679004,1.07196 0.602081,1.05653 1.709692,2.27743 2.599934,2.86581 0.79191,0.52341 1.95998,0.98737 2.89446,1.14974 l 0.73028,0.1269 -0.37963,0.51208 c -0.20885,0.28165 -0.60884,0.6634 -0.88902,0.84833 l -0.50938,0.33619 0.26441,0.20713 c 0.60505,0.47391 1.25694,1.12503 1.38858,1.38688 l 0.1407,0.28002 h -0.43263 c -0.52863,0 -1.57269,0.32188 -2.36178,0.72813 -1.816572,0.93523 -3.274415,2.5688 -4.005905,4.4887 -0.206641,0.54253 -0.305903,0.93548 -0.506524,2.00652 -0.05072,0.27115 -0.04499,0.27118 -1.572167,-0.01 z m 17.87835,-0.036 c 0,-0.38948 -0.33508,-1.60562 -0.63388,-2.3006 -0.58345,-1.35704 -1.76459,-2.78374 -3.0092,-3.63482 -1.01267,-0.69248 -2.43666,-1.23976 -3.23254,-1.24237 -0.24775,-8e-4 -0.36702,-0.0467 -0.36702,-0.14117 0,-0.22524 0.87362,-1.16077 1.2858,-1.37705 0.20797,-0.10904 0.37804,-0.2422 0.37804,-0.29575 0,-0.0536 -0.16782,-0.20642 -0.37308,-0.33963 -0.35803,-0.23237 -1.29076,-1.2169 -1.29076,-1.3623 0,-0.0385 0.31931,-0.12571 0.70957,-0.19332 2.34327,-0.40706 4.62844,-2.19208 5.70388,-4.45547 0.30059,-0.63261 0.46583,-0.76844 1.16954,-0.96122 0.97548,-0.26723 2.72642,-0.0993 3.35174,0.32165 0.27848,0.18738 0.21899,0.35892 -0.53131,1.53321 -0.64766,1.01359 -2.67219,3.15991 -3.65014,3.86974 -0.81839,0.594 -1.84326,1.11779 -2.62335,1.34076 -0.3393,0.0969 -0.58155,0.20618 -0.5383,0.24244 0.0432,0.0364 0.40895,0.17118 0.81267,0.29982 0.90778,0.28904 1.52632,0.60262 2.34898,1.19095 0.89296,0.63862 2.25451,2.03492 2.96476,3.04043 0.67921,0.96158 1.46762,2.48921 1.3727,2.65975 -0.0347,0.0622 -0.2947,0.45486 -0.57804,0.87278 l -0.51522,0.75987 -1.10827,0.17975 c -0.60955,0.0988 -1.22939,0.20214 -1.37743,0.22976 -0.24204,0.045 -0.26914,0.0214 -0.26914,-0.2369 z m 3.67024,-16.24295 c -0.89279,-0.42745 -2.70046,-0.50783 -3.66367,-0.16285 -0.23862,0.0855 -0.46985,0.13238 -0.51385,0.10452 -0.13673,-0.0869 -0.0865,-1.08079 0.0704,-1.39025 0.082,-0.16189 0.11226,-0.32036 0.0672,-0.35234 -0.045,-0.0319 -0.18304,-0.35263 -0.30661,-0.71254 -0.53464,-1.5563 -1.5729,-2.85253 -2.49826,-3.11902 -0.35955,-0.10357 -0.43575,-0.17094 -0.48625,-0.43077 -0.0328,-0.16928 -0.0443,-0.32399 -0.0253,-0.34353 0.0198,-0.019 1.58747,-0.0238 3.48543,-0.01 l 3.45088,0.0265 -0.57304,0.63062 -0.57302,0.63062 -0.71504,-0.18762 c -0.66056,-0.17356 -1.19351,-0.18594 -1.19351,-0.0279 0,0.0362 0.31931,0.2684 0.7096,0.51603 0.90315,0.5731 1.98525,1.63049 2.40951,2.35453 0.31707,0.54107 0.32354,0.57234 0.16893,0.81492 -0.14776,0.2319 -0.22561,0.25394 -0.96589,0.27345 -0.44286,0.0119 -1.0408,0.01 -1.32877,-0.007 -0.35146,-0.0191 -0.5024,0.007 -0.45913,0.0795 0.0402,0.0669 0.53422,0.10737 1.31035,0.10737 1.03003,0 1.30895,-0.0331 1.60998,-0.19094 l 0.36411,-0.19094 0.18392,0.24042 c 0.25651,0.33541 0.34132,0.8903 0.18613,1.21769 -0.16253,0.34267 -0.23846,0.35634 -0.71426,0.12856 z"
       id="path5664" />
  </g>
</svg>
